<?xml version="1.0" encoding="UTF-8"?>
<svg xmlns="http://www.w3.org/2000/svg" xmlns:xlink="http://www.w3.org/1999/xlink" id="Gradient" viewBox="0 0 512 512" width="512" height="512"><defs><linearGradient id="linear-gradient" x1="256" y1="488" x2="256" y2="16" gradientUnits="userSpaceOnUse"><stop offset="0" stop-color="#12bee5"/><stop offset="0.5" stop-color="#c071e9"/><stop offset="1" stop-color="#f24f5a"/></linearGradient></defs><path d="M232,256a24,24,0,0,1-8-46.624V155.314l-2.343,2.343a8,8,0,0,1-11.314-11.314l16-16a8,8,0,0,1,11.314,0l16,16a8,8,0,0,1-11.314,11.314L240,155.314v54.062A24.119,24.119,0,0,1,254.624,224h86.062l-2.343-2.343a8,8,0,0,1,11.314-11.314l16,16a8,8,0,0,1,0,11.314l-16,16a8,8,0,0,1-11.314-11.314L340.686,240H254.624A24.039,24.039,0,0,1,232,256Zm8-24a8,8,0,1,0-8,8A8.009,8.009,0,0,0,240,232ZM496,432a23.9,23.9,0,0,1-6.131,16A23.984,23.984,0,0,1,472,488H360a23.984,23.984,0,0,1-17.869-40,23.933,23.933,0,0,1-2.441-28.764A215.709,215.709,0,1,1,444.767,269.371,79.949,79.949,0,0,1,463.945,408H472A24.027,24.027,0,0,1,496,432Zm-136-8a8,8,0,0,0,0,16H472a8,8,0,0,0,0-16ZM240,392v7.806a167.846,167.846,0,0,0,98.121-37.574,79.925,79.925,0,0,1,58.339-95.809A168.69,168.69,0,0,0,399.8,240H392a8,8,0,0,1,0-16h7.805a167.354,167.354,0,0,0-43.544-104.948l-5.468,5.468a8,8,0,1,1-11.313-11.314l5.468-5.467A167.354,167.354,0,0,0,240,64.195V72a8,8,0,0,1-16,0V64.195a167.354,167.354,0,0,0-104.948,43.544l5.468,5.467a8,8,0,1,1-11.313,11.314l-5.468-5.468A167.354,167.354,0,0,0,64.195,224H72a8,8,0,0,1,0,16H64.195a167.354,167.354,0,0,0,43.544,104.948l5.468-5.468a8,8,0,1,1,11.313,11.314l-5.468,5.467A167.354,167.354,0,0,0,224,399.805V392a8,8,0,0,1,16,0ZM416,280a64,64,0,1,0,64,64A64.072,64.072,0,0,0,416,280ZM232,432a200.312,200.312,0,0,0,120.027-40.021,80.08,80.08,0,0,1-8.323-13.762A183.885,183.885,0,0,1,232,416C130.542,416,48,333.458,48,232S130.542,48,232,48s184,82.542,184,184a185.582,185.582,0,0,1-2.8,32.071c.929-.032,1.857-.071,2.8-.071a80.109,80.109,0,0,1,13.264,1.12A202.04,202.04,0,0,0,432,232c0-110.28-89.72-200-200-200S32,121.72,32,232,121.72,432,232,432Zm124.926-23.8A23.985,23.985,0,0,1,360,408h8.055c-1.767-1.328-3.47-2.737-5.12-4.2C360.957,405.305,358.95,406.768,356.926,408.2ZM480,464a8.009,8.009,0,0,0-8-8H360a8,8,0,0,0,0,16H472A8.009,8.009,0,0,0,480,464ZM408,304v1.151c-11.583,3.585-16,14.836-16,22.849,0,9.647,6.392,24,24,24,4.3,0,5.8,1.658,6.688,3.28a9.164,9.164,0,0,1,0,9.44C421.8,366.342,420.3,368,416,368s-5.8-1.658-6.688-3.28A12.077,12.077,0,0,1,408,360a8,8,0,0,0-16,0c0,8.013,4.417,19.264,16,22.849V384a8,8,0,0,0,16,0v-1.151c11.583-3.585,16-14.836,16-22.849,0-9.647-6.392-24-24-24-4.3,0-5.8-1.658-6.688-3.28a9.164,9.164,0,0,1,0-9.44c.893-1.622,2.386-3.28,6.688-3.28s5.8,1.658,6.688,3.28A12.052,12.052,0,0,1,424,328.1V328a8,8,0,0,0,16,0c0-8.013-4.417-19.264-16-22.849V304a8,8,0,0,0-16,0Z" style="fill:url(#linear-gradient)"/></svg>
