<svg id="Layer_1" height="512" viewBox="0 0 512 512" width="512" xmlns="http://www.w3.org/2000/svg" xmlns:xlink="http://www.w3.org/1999/xlink" data-name="Layer 1"><linearGradient id="linear-gradient" gradientUnits="userSpaceOnUse" x1="89.798" x2="89.798" y1="474.349" y2="108.912"><stop offset=".322" stop-color="#a163f5"/><stop offset=".466" stop-color="#b074ee"/><stop offset=".752" stop-color="#d8a1dd"/><stop offset=".898" stop-color="#efbad3"/></linearGradient><linearGradient id="linear-gradient-2" x1="98.377" x2="98.377" xlink:href="#linear-gradient" y1="474.349" y2="108.911"/><linearGradient id="linear-gradient-3" x1="53.731" x2="53.731" xlink:href="#linear-gradient" y1="474.35" y2="108.911"/><linearGradient id="linear-gradient-4" x1="126.658" x2="126.658" xlink:href="#linear-gradient" y1="474.349" y2="108.911"/><linearGradient id="linear-gradient-5" x1="53.731" x2="53.731" xlink:href="#linear-gradient" y1="474.349" y2="108.911"/><linearGradient id="linear-gradient-6" x1="30.129" x2="30.129" xlink:href="#linear-gradient" y1="474.35" y2="108.911"/><linearGradient id="linear-gradient-7" x1="30.129" x2="30.129" xlink:href="#linear-gradient" y1="474.349" y2="108.911"/><linearGradient id="linear-gradient-8" x1="104.834" x2="104.834" xlink:href="#linear-gradient" y1="474.35" y2="108.911"/><linearGradient id="linear-gradient-9" x1="177.761" x2="177.761" xlink:href="#linear-gradient" y1="474.349" y2="108.911"/><linearGradient id="linear-gradient-10" x1="104.834" x2="104.834" xlink:href="#linear-gradient" y1="474.349" y2="108.911"/><linearGradient id="linear-gradient-11" x1="81.231" x2="81.231" xlink:href="#linear-gradient" y1="474.35" y2="108.911"/><linearGradient id="linear-gradient-12" x1="81.231" x2="81.231" xlink:href="#linear-gradient" y1="474.349" y2="108.911"/><linearGradient id="linear-gradient-13" x1="57.775" x2="57.775" xlink:href="#linear-gradient" y1="474.35" y2="108.911"/><linearGradient id="linear-gradient-14" x1="57.775" x2="57.775" xlink:href="#linear-gradient" y1="474.349" y2="108.911"/><linearGradient id="linear-gradient-15" x1="34.173" x2="34.173" xlink:href="#linear-gradient" y1="474.35" y2="108.911"/><linearGradient id="linear-gradient-16" x1="34.173" x2="34.173" xlink:href="#linear-gradient" y1="474.349" y2="108.911"/><linearGradient id="linear-gradient-17" x1="201.941" x2="201.941" xlink:href="#linear-gradient" y1="474.349" y2="108.911"/><linearGradient id="linear-gradient-18" x1="280.066" x2="280.066" xlink:href="#linear-gradient" y1="474.349" y2="108.912"/><linearGradient id="linear-gradient-19" x1="358.19" x2="358.19" xlink:href="#linear-gradient" y1="474.349" y2="108.912"/><linearGradient id="linear-gradient-20" x1="437.245" x2="437.245" xlink:href="#linear-gradient" y1="474.349" y2="108.911"/><linearGradient id="linear-gradient-21" x1="437.113" x2="437.113" xlink:href="#linear-gradient" y1="474.35" y2="108.911"/><linearGradient id="linear-gradient-23" x1="277.818" x2="277.818" xlink:href="#linear-gradient" y1="474.35" y2="108.912"/><linearGradient id="linear-gradient-24" x1="294.893" x2="294.893" xlink:href="#linear-gradient" y1="474.349" y2="108.911"/><linearGradient id="linear-gradient-25" x1="351.29" x2="351.29" xlink:href="#linear-gradient" y1="474.35" y2="108.91"/><linearGradient id="linear-gradient-26" x1="351.29" x2="351.29" xlink:href="#linear-gradient" y1="474.349" y2="108.911"/><linearGradient id="linear-gradient-27" x1="89.214" x2="89.214" xlink:href="#linear-gradient" y1="474.349" y2="108.91"/><linearGradient id="linear-gradient-28" x1="130.703" x2="130.703" xlink:href="#linear-gradient" y1="474.349" y2="108.911"/><path d="m89.8 328.031a79.913 79.913 0 1 0 79.8 79.913 79.946 79.946 0 0 0 -79.8-79.913zm0 147.826a67.913 67.913 0 1 1 67.8-67.913 67.932 67.932 0 0 1 -67.8 67.913z" fill="url(#linear-gradient)"/><path d="m113.81 402.323h-12.189a13.157 13.157 0 0 0 -5.409-5.517v-17.827a6 6 0 0 0 -12 0v17.638a13.071 13.071 0 1 0 17.409 17.706h12.189a6 6 0 1 0 0-12zm-23.794 7.084a1.084 1.084 0 1 1 1.074-1.084 1.08 1.08 0 0 1 -1.074 1.084z" fill="url(#linear-gradient-2)"/><path d="m50.629 66.889h6.2a6 6 0 1 0 0-12h-6.2a6 6 0 0 0 0 12z" fill="url(#linear-gradient-3)"/><path d="m75.132 102.057h47.548v15.383a6 6 0 0 0 9.7 4.721l49.505-38.818a6 6 0 0 0 0-9.444l-49.5-38.818a6 6 0 0 0 -9.7 4.722v15.086h-47.553a6 6 0 0 0 -6 6v35.168a6 6 0 0 0 6 6zm6-35.168h47.548a6 6 0 0 0 6-6v-8.757l33.781 26.489-33.781 26.489v-9.053a6 6 0 0 0 -6-6h-47.548z" fill="url(#linear-gradient-4)"/><path d="m50.629 102.271h6.2a6 6 0 0 0 0-12h-6.2a6 6 0 0 0 0 12z" fill="url(#linear-gradient-5)"/><path d="m27.027 66.889h6.2a6 6 0 1 0 0-12h-6.2a6 6 0 0 0 0 12z" fill="url(#linear-gradient-6)"/><path d="m27.027 102.271h6.2a6 6 0 1 0 0-12h-6.2a6 6 0 0 0 0 12z" fill="url(#linear-gradient-7)"/><path d="m107.935 154.87h-6.2a6 6 0 1 0 0 12h6.2a6 6 0 0 0 0-12z" fill="url(#linear-gradient-8)"/><path d="m232.989 173.88-49.5-38.818a6 6 0 0 0 -9.7 4.722v15.086h-47.555a6 6 0 0 0 -6 6v35.168a6 6 0 0 0 6 6h47.548v15.382a6 6 0 0 0 9.7 4.722l49.505-38.819a6 6 0 0 0 0-9.443zm-47.207 31.211v-9.053a6 6 0 0 0 -6-6h-47.548v-23.168h47.548a6 6 0 0 0 6-6v-8.757l33.782 26.487z" fill="url(#linear-gradient-9)"/><path d="m107.935 202.253a6 6 0 0 0 0-12h-6.2a6 6 0 0 0 0 12z" fill="url(#linear-gradient-10)"/><path d="m78.129 166.87h6.2a6 6 0 0 0 0-12h-6.2a6 6 0 0 0 0 12z" fill="url(#linear-gradient-11)"/><path d="m78.129 202.253h6.2a6 6 0 1 0 0-12h-6.2a6 6 0 0 0 0 12z" fill="url(#linear-gradient-12)"/><path d="m54.674 254.852a6 6 0 0 0 0 12h6.2a6 6 0 1 0 0-12z" fill="url(#linear-gradient-13)"/><path d="m60.877 290.233h-6.2a6 6 0 1 0 0 12h6.2a6 6 0 0 0 0-12z" fill="url(#linear-gradient-14)"/><path d="m31.071 254.852a6 6 0 0 0 0 12h6.2a6 6 0 1 0 0-12z" fill="url(#linear-gradient-15)"/><path d="m37.275 290.233h-6.2a6 6 0 0 0 0 12h6.2a6 6 0 0 0 0-12z" fill="url(#linear-gradient-16)"/><path d="m226.918 343.7h-49.953a6 6 0 0 0 -6 6v132.157a6 6 0 0 0 6 6h49.953a6 6 0 0 0 6-6v-132.157a6 6 0 0 0 -6-6zm-6 132.154h-37.953v-67.486h37.953zm0-79.489h-37.953v-40.665h37.953z" fill="url(#linear-gradient-17)"/><path d="m305.042 278.638h-49.953a6 6 0 0 0 -6 6v197.219a6 6 0 0 0 6 6h49.953a6 6 0 0 0 6-6v-197.219a6 6 0 0 0 -6-6zm-6 197.219h-37.953v-115.169h37.953zm0-127.169h-37.953v-58.05h37.953z" fill="url(#linear-gradient-18)"/><path d="m383.167 222.867h-49.954a6 6 0 0 0 -6 6v252.99a6 6 0 0 0 6 6h49.954a6 6 0 0 0 6-6v-252.99a6 6 0 0 0 -6-6zm-6 252.99h-37.954v-146.637h37.954zm0-158.637h-37.954v-82.353h37.954z" fill="url(#linear-gradient-19)"/><path d="m437.245 24.143a64.743 64.743 0 1 0 64.724 66.772q.031-1.01.031-2.026a64.824 64.824 0 0 0 -64.755-64.746zm6 12.351a52.488 52.488 0 0 1 26.792 11.123l-5.4 5.4a44.936 44.936 0 0 0 -21.395-8.878zm-12 0v7.641a44.932 44.932 0 0 0 -21.395 8.878l-5.4-5.4a52.5 52.5 0 0 1 26.795-11.119zm-35.279 85.182a52.465 52.465 0 0 1 -11.125-26.787h7.644a44.932 44.932 0 0 0 8.878 21.39zm-3.481-38.787h-7.644a52.477 52.477 0 0 1 11.125-26.789l5.4 5.4a44.931 44.931 0 0 0 -8.881 21.389zm38.76 58.4a52.5 52.5 0 0 1 -26.793-11.123l5.4-5.4a44.93 44.93 0 0 0 21.4 8.878zm12 0v-7.642a44.934 44.934 0 0 0 21.4-8.878l5.424 5.424a52.332 52.332 0 0 1 -26.824 11.091zm-6-19.231a33.164 33.164 0 1 1 33.17-33.164 33.2 33.2 0 0 1 -33.17 33.159zm41.278-65.958a52.482 52.482 0 0 1 11.126 26.788h-7.649a44.912 44.912 0 0 0 -8.874-21.388zm.021 65.6-5.417-5.417a44.921 44.921 0 0 0 8.873-21.394h7.646a52.28 52.28 0 0 1 -11.102 26.811z" fill="url(#linear-gradient-20)"/><path d="m437.113 83a1.616 1.616 0 1 1 0-3.216 1.824 1.824 0 0 1 1.456.687 6 6 0 0 0 9.461-7.381 13.711 13.711 0 0 0 -5.019-4 5.994 5.994 0 0 0 -11.8.02 13.57 13.57 0 0 0 5.902 25.89 1.616 1.616 0 1 1 0 3.215 1.829 1.829 0 0 1 -1.458-.688 6 6 0 1 0 -9.458 7.385 13.718 13.718 0 0 0 5.063 4.013 6 6 0 0 0 11.71-.019 13.57 13.57 0 0 0 -5.857-25.906z" fill="url(#linear-gradient-21)"/><path d="m462.222 158.841h-49.954a6 6 0 0 0 -6 6v317.016a6 6 0 0 0 6 6h49.954a6 6 0 0 0 6-6v-317.016a6 6 0 0 0 -6-6zm-6 317.016h-37.954v-220.468h37.954zm0-232.468h-37.954v-72.548h37.954z" fill="url(#linear-gradient-20)"/><path d="m290.588 212.444h-5.837a32.85 32.85 0 0 0 25.865-32.053v-21.863a6 6 0 0 0 4.827-5.885 22.127 22.127 0 0 0 -22.1-22.1 17.35 17.35 0 0 1 -5.042-.758 38.564 38.564 0 0 0 -10.482-2 32.835 32.835 0 0 0 -32.8 32.8v19.807a32.85 32.85 0 0 0 25.865 32.053h-5.837a30.11 30.11 0 0 0 -30.077 30.077v23.486a6 6 0 0 0 6 6h73.693a6 6 0 0 0 6-6v-23.487a30.11 30.11 0 0 0 -30.075-30.077zm-33.567-51.86a20.821 20.821 0 0 1 20.8-20.8c.5 0 2.477.107 7 1.479a29.34 29.34 0 0 0 8.527 1.275 10.087 10.087 0 0 1 8.121 4.1h-24.285a11.669 11.669 0 0 0 -11.656 11.662 6.362 6.362 0 0 1 -6.356 6.355h-2.151zm0 19.807v-3.737h2.151a18.378 18.378 0 0 0 18.353-18.011h21.091v21.748a20.8 20.8 0 1 1 -41.595 0zm51.644 79.616h-61.693v-17.486a18.1 18.1 0 0 1 18.077-18.077h25.539a18.1 18.1 0 0 1 18.077 18.077z" fill="url(#linear-gradient-23)"/><path d="m298.569 234.425h-7.352a6 6 0 0 0 0 12h7.352a6 6 0 0 0 0-12z" fill="url(#linear-gradient-24)"/><path d="m351.29 258.888a6 6 0 0 0 6-6v-3.4a6 6 0 0 0 -12 0v3.4a6 6 0 0 0 6 6z" fill="url(#linear-gradient-25)"/><path d="m351.29 309.816a6 6 0 0 0 6-6v-32.957a6 6 0 0 0 -12 0v32.957a6 6 0 0 0 6 6z" fill="url(#linear-gradient-26)"/><path d="m89.214 345.737a61.853 61.853 0 1 0 61.766 61.853 61.879 61.879 0 0 0 -61.766-61.853zm44.786 68.263h4.555a49.659 49.659 0 0 1 -10.364 24.532l-3.911-3.917a6.078 6.078 0 0 0 -8.1-.575 5.908 5.908 0 0 0 -.436 8.743l4.073 4.079a49.452 49.452 0 0 1 -24.752 10.225l-.014-5.195a5.907 5.907 0 0 0 -5.91-5.892h-.016a5.891 5.891 0 0 0 -5.891 5.907l.014 5.165a49.454 49.454 0 0 1 -24.716-10.272l3.829-3.835a6.079 6.079 0 0 0 .564-8.1 5.91 5.91 0 0 0 -8.746-.424l-4.007 4.014a49.656 49.656 0 0 1 -10.298-24.455h5.405a6.167 6.167 0 0 0 6.169-5.088 6 6 0 0 0 -5.838-6.912h-5.841a49.657 49.657 0 0 1 10.231-25.056l4.176 4.183a5.908 5.908 0 0 0 8.227.129 6.1 6.1 0 0 0 -.044-8.653l-4.045-4.052a49.477 49.477 0 0 1 24.931-10.443l-.015 6.092c-.008 3.262 2.629 4.8 5.892 5.8h.015a5.907 5.907 0 0 0 5.907-5.892l.015-6.015a49.471 49.471 0 0 1 24.893 10.337l-4.1 4.234a6.11 6.11 0 0 0 .049 8.617 5.907 5.907 0 0 0 8.261-.216l4.142-4.273a49.639 49.639 0 0 1 10.355 25.208h-4.659a6 6 0 0 0 0 12z" fill="url(#linear-gradient-27)"/><path d="m130.1 322.851a6 6 0 0 0 6.328-.674l49.505-38.818a6 6 0 0 0 0-9.444l-49.507-38.815a6 6 0 0 0 -9.7 4.722v15.086h-47.55a6 6 0 0 0 -6 6v35.168a6 6 0 0 0 6 6h47.548v15.382a6 6 0 0 0 3.376 5.393zm-44.924-32.777v-23.168h47.548a6 6 0 0 0 6-6v-8.757l33.781 26.488-33.781 26.49v-9.053a6 6 0 0 0 -6-6z" fill="url(#linear-gradient-28)"/></svg>