<svg id="Layer_1" height="512" viewBox="0 0 512 512" width="512" xmlns="http://www.w3.org/2000/svg" data-name="Layer 1"><path d="m426.48 273h73.94a245 245 0 0 1 -417.66 156.25 245.006 245.006 0 0 1 0-346.49 249.464 249.464 0 0 1 26.96-23.35l40.54 61.88a171.117 171.117 0 0 0 -65.58 134.71c0 94.47 76.85 171.36 171.32 171.36 88.75 0 161.96-68.36 170.48-154.36z" fill="#5fcda4"/><path d="m500.96 253h-73.68a170.388 170.388 0 0 0 -42.33-109.67l51.31-53.25a243.025 243.025 0 0 1 64.7 162.92z" fill="#f58387"/><path d="m422.18 75.99-51.18 53.13a171 171 0 0 0 -204.39-19.21l-40.46-61.76a245.189 245.189 0 0 1 296.03 27.84z" fill="#6994fe"/><path d="m256.02 107.99v26.15a121.488 121.488 0 0 0 -86.17 35.69l-18.48-18.49a147.539 147.539 0 0 1 104.65-43.35z" fill="#eadf53"/><path d="m151.37 151.34 18.48 18.49a121.465 121.465 0 0 0 -35.69 86.16h-26.14a147.5 147.5 0 0 1 43.35-104.65z" fill="#edb740"/><path d="m134.16 255.99a121.506 121.506 0 0 0 35.69 86.17l-18.48 18.48a147.5 147.5 0 0 1 -43.35-104.65z" fill="#eadf53"/><path d="m256.02 377.85v26.14a147.539 147.539 0 0 1 -104.65-43.35l18.48-18.48a121.488 121.488 0 0 0 86.17 35.69z" fill="#edb740"/><path d="m342.18 342.16 18.49 18.48a147.539 147.539 0 0 1 -104.65 43.35v-26.14a121.465 121.465 0 0 0 86.16-35.69z" fill="#eadf53"/><path d="m377.87 255.99h26.15a147.5 147.5 0 0 1 -43.35 104.65l-18.49-18.48a121.506 121.506 0 0 0 35.69-86.17z" fill="#edb740"/><path d="m404.02 255.99h-26.15a121.465 121.465 0 0 0 -35.69-86.16l18.49-18.49a147.5 147.5 0 0 1 43.35 104.65z" fill="#eadf53"/><path d="m360.67 151.34-18.49 18.49a121.465 121.465 0 0 0 -86.16-35.69v-26.15a147.539 147.539 0 0 1 104.65 43.35z" fill="#edb740"/><circle cx="256" cy="256" fill="#f3ce7d" r="121.855"/><path d="m256.02 159.49a96.5 96.5 0 1 1 -96.5 96.5 96.5 96.5 0 0 1 96.5-96.5z" fill="#edb740"/><path d="m43.29 256a244.028 244.028 0 0 1 77.924-179.046l-11.494-17.544a249.464 249.464 0 0 0 -26.96 23.35 245.015 245.015 0 0 0 173.24 418.26q9.309 0 18.5-.686c-128.868-7.007-231.21-113.714-231.21-244.334z" fill="#549b7e"/><path d="m256 11a243.408 243.408 0 0 0 -129.85 37.15l10.295 15.715a243.541 243.541 0 0 1 137.855-52.187q-9.088-.667-18.3-.678z" fill="#4689d3"/><path d="m189.52 255.99a96.529 96.529 0 0 1 81.5-95.337 96.5 96.5 0 1 0 0 190.674 96.529 96.529 0 0 1 -81.5-95.337z" fill="#c1953e"/><path d="m256.037 249.423a18.551 18.551 0 1 1 18.551-18.551 5.991 5.991 0 1 0 11.982 0 30.6 30.6 0 0 0 -24.57-29.956v-8.085a6 6 0 0 0 -12 0v8.085a30.553 30.553 0 0 0 6.027 60.507 18.547 18.547 0 0 1 .181 37.094c-.058 0-.114-.009-.173-.009s-.115.007-.173.009a18.568 18.568 0 0 1 -18.377-18.543 6.009 6.009 0 0 0 -12.018 0 30.567 30.567 0 0 0 24.533 29.956v9.2a6 6 0 1 0 12 0v-9.2a30.549 30.549 0 0 0 -5.963-60.507z" fill="#5f5f82"/><g fill="#f4f8fc"><path d="m53.093 338.635a6 6 0 0 1 -5.612-3.875 223.123 223.123 0 0 1 10.733-181.524 6 6 0 1 1 10.653 5.522 211.111 211.111 0 0 0 -10.167 171.75 6 6 0 0 1 -5.61 8.127z"/><path d="m75.764 141.308a6 6 0 0 1 -4.982-9.337c1.178-1.761 2.39-3.518 3.6-5.222a6 6 0 1 1 9.78 6.953c-1.146 1.612-2.293 3.275-3.408 4.942a6 6 0 0 1 -4.99 2.664z"/></g></svg>