<?xml version="1.0" encoding="utf-8"?>
<!-- Generator: Adobe Illustrator 22.1.0, SVG Export Plug-In . SVG Version: 6.00 Build 0)  -->
<svg version="1.1" id="图层_1" xmlns="http://www.w3.org/2000/svg" xmlns:xlink="http://www.w3.org/1999/xlink" x="0px" y="0px"
	 viewBox="0 0 60 60" style="enable-background:new 0 0 60 60;" xml:space="preserve">
<style type="text/css">
	.st0{fill:#FFBE1B;}
	.st1{fill:#6857E5;}
	.st2{fill:#FFE37B;}
	.st3{fill:#FFFFFF;}
	.st4{fill:#8C7BFD;}
	.st5{fill:#8AC9F9;}
</style>
<g>
	<path class="st0" d="M4.2-4.1L4.6-4L4.2-3.9C1.6-3.2-0.4-1.2-1.1,1.4l-0.1,0.4l-0.1-0.4C-2-1.2-4-3.2-6.6-3.9L-7-4l0.4-0.1
		C-4-4.8-2-6.8-1.3-9.4l0.1-0.4l0.1,0.4C-0.4-6.8,1.6-4.8,4.2-4.1L4.2-4.1z"/>
	<path class="st0" d="M58.2-1.5l0.3,0.1l-0.3,0.1c-2,0.5-3.5,2-4,4L54.2,3l-0.1-0.3c-0.5-2-2-3.5-4-4l-0.3-0.1l0.3-0.1
		c2-0.5,3.5-2,4-4l0.1-0.3l0.1,0.3C54.7-3.5,56.2-2,58.2-1.5L58.2-1.5z"/>
	<path class="st0" d="M42-18.6l0.5,0.1L42-18.4c-3.1,0.8-5.5,3.2-6.3,6.3l-0.1,0.5l-0.1-0.5c-0.8-3.1-3.2-5.5-6.3-6.3l-0.5-0.1
		l0.5-0.1c3.1-0.8,5.5-3.2,6.3-6.3l0.1-0.5l0.1,0.5C36.5-21.8,38.9-19.4,42-18.6L42-18.6z"/>
	<path class="st1" d="M8.9,11.5c0-1.4,0.2-2.8,0.4-4.2H4.9c-3.4,0-6.2,2.7-6.3,6.2c0,0.3,0.4,2.3,2.9,3.6c1.7,0.9,4.4,0.9,5.6,0.9
		H10C9.3,15.9,8.9,13.7,8.9,11.5z"/>
	<path class="st1" d="M52.6,7.3h-3.5c0.3,1.4,0.4,2.8,0.4,4.2c0,2.3-0.4,4.4-1.1,6.4h6.8c1.3,0,2.6,0.4,3.6,1.1v-5.5
		C58.9,10.1,56.1,7.3,52.6,7.3z"/>
	<path class="st0" d="M48.4,17.9c0.7-2,1.1-4.2,1.1-6.4c0-11.2-9.1-20.3-20.3-20.3C18-8.8,8.9,0.3,8.9,11.5c0,2.3,0.4,4.4,1.1,6.4
		H48.4z"/>
	<path class="st2" d="M43,17.9c0.9-2,1.4-4.1,1.4-6.4c0-8.4-6.8-15.2-15.2-15.2C20.8-3.8,14,3.1,14,11.5c0,2.3,0.5,4.5,1.4,6.4H43z"
		/>
	<path class="st3" d="M22.3,16.1v1.8h12.4c0.2-0.1,0.3-0.3,0.5-0.4c0.7-0.8,1.1-1.7,1.1-2.7c0-0.9-0.3-1.7-0.8-2.3
		c-0.5-0.6-1.3-1-2.2-1.2c0.3-0.1,0.4-0.2,0.5-0.2c0.1,0,0.3-0.2,0.5-0.4C35,10,35.3,9.1,35.3,8c0-1-0.3-1.8-1-2.6
		c-0.4-0.4-0.9-0.7-1.6-1c-0.2-0.1-0.4-0.1-0.7-0.2V2.4h-2.6v1.7h-1.7V2.4h-2.6v1.7h-0.7h-2.1v2.8h2.1v9.2H22.3z M27.7,6.9h1.6
		c1,0,1.7,0.1,2.1,0.3c0.4,0.2,0.6,0.6,0.6,1.3c0,0.7-0.2,1.1-0.7,1.3c-0.4,0.2-1.1,0.3-2,0.3h-1.6V6.9z M27.7,12.7h1.9
		c1.1,0,1.9,0.1,2.4,0.3c0.5,0.2,0.8,0.7,0.8,1.4c0,0.7-0.2,1.1-0.7,1.4c-0.5,0.2-1.2,0.3-2.1,0.3h-2.3V12.7z"/>
	<path class="st4" d="M55.3,61.3H4.9c-3.5,0-6.3-2.8-6.3-6.3V13.4c0,0,0.2,2.3,2.9,3.7c1.7,0.9,4.4,0.9,5.6,0.9h48.2
		c3.5,0,6.3,2.8,6.3,6.3V55C61.6,58.5,58.8,61.3,55.3,61.3L55.3,61.3z"/>
	<path class="st5" d="M44.5,46.3c-1.6,0-2.8-1.3-2.8-2.8v-7.8c0-1.6,1.3-2.8,2.8-2.8h17.1v13.4H44.5z"/>
	<path class="st2" d="M50,39.5c0,1.5-1.3,2.8-2.8,2.8c-1.6,0-2.8-1.3-2.8-2.8c0-1.6,1.3-2.8,2.8-2.8C48.8,36.7,50,38,50,39.5z"/>
</g>
</svg>
