<svg enable-background="new 0 0 512 512" height="512" viewBox="0 0 512 512" width="512" xmlns="http://www.w3.org/2000/svg"><g id="_x33_2_x2C__Cash_x2C__money_x2C__wallet_x2C__wealth"><g id="XMLID_4060_"><g id="XMLID_4061_"><g id="XMLID_4365_"><g id="XMLID_4384_"><path id="XMLID_4385_" d="m412.136 392.904c-.1 0-.211 0-.31 0-43.173 0-78.378-35.193-78.378-78.378 0-43.136 35.205-78.328 78.378-78.328h.31c43.012.174 78.03 35.291 78.03 78.328 0 43.086-35.019 78.203-78.03 78.378z" fill="#fdcd56"/></g><g id="XMLID_4380_"><path id="XMLID_4381_" d="m412.136 392.904v47.732h-375.469v-283.77h.546 34.063c6.865 36.209 38.8 63.73 76.966 63.73 38.178 0 70.112-27.521 76.978-63.73h4.039 156.606 16.06 10.211v79.307.025c-.1 0-.211 0-.31 0-43.173 0-78.378 35.192-78.378 78.328 0 43.185 35.205 78.378 78.378 78.378zm-218.094 26.666v-45.85h-135.07v45.85z" fill="#636c77"/></g><g id="XMLID_4378_"><path id="XMLID_4379_" d="m365.319 72.801 20.546 84.065h-156.606l101.475-62.256c-.235-.012-.471-.024-.706 0z" fill="#9ed26a"/></g><g id="XMLID_4376_"><path id="XMLID_4377_" d="m313.175 6.196c13.173 0 23.917 10.744 23.917 23.929 0 13.147-10.744 23.916-23.917 23.916-13.196 0-23.928-10.769-23.928-23.916 0-13.186 10.732-23.929 23.928-23.929z" fill="#f76c82"/></g><g id="XMLID_4374_"><path id="XMLID_4375_" d="m330.028 94.61-100.77 62.256h-4.039c.792-4.163 1.251-8.426 1.351-12.788.012-.607.023-1.202.023-1.809 0-.037 0-.062 0-.099 0-.645-.012-1.277-.023-1.921-.038-1.425-.111-2.838-.223-4.238-1.017-13.21-5.292-25.626-12.021-35.775-.1-.161-.198-.31-.31-.471-1.078-1.66-2.219-3.284-3.42-4.857h116.283c1.055 0 2.096-.261 3.149-.298z" fill="#424852"/></g><g id="XMLID_4372_"><path id="XMLID_4373_" d="m225.132 156.866h.088c-6.865 36.209-38.8 63.73-76.978 63.73-38.166 0-70.101-27.521-76.966-63.73h.088c-.719-3.717-1.19-7.311-1.376-11.053-.024-.62-.05-1.252-.063-1.883-.023-.558-.023-1.103-.023-1.661 0-.087 0-.173 0-.261.135-43.048 35.267-78.104 78.34-78.104 25.402 0 48.029 12.181 62.355 31.004h-.187c1.265 1.549 2.466 3.172 3.606 4.857.111.161.21.31.31.471 6.704 10.496 10.979 22.689 12.021 35.775.111 1.4.185 2.813.223 4.238.012.644.023 1.276.023 1.921v.099c0 .607-.012 1.202-.023 1.809-.111 4.412-.608 8.451-1.438 12.788z" fill="#fdcd56"/></g><g id="XMLID_4370_"><path id="XMLID_4371_" d="m58.972 373.721h135.07v45.85h-135.07z" fill="#f76c82"/></g><g id="XMLID_4368_"><path id="XMLID_4369_" d="m84.673 96.098c-9.306 12.875-14.771 28.811-14.771 45.911v.261c0 .558 0 1.103.023 1.661 0 .631.025 1.264.063 1.883.16 3.767.595 7.447 1.288 11.053h-34.063c0-28.502 20.26-53.88 47.46-60.769z" fill="#424852"/></g><g id="XMLID_4366_"><path id="XMLID_4367_" d="m39.084 471.294c9.492 0 17.249 7.732 17.249 17.261 0 9.48-7.757 17.249-17.249 17.249-9.518 0-17.249-7.769-17.249-17.249 0-9.529 7.731-17.261 17.249-17.261z" fill="#f76c82"/></g></g><g id="XMLID_4062_"><g id="XMLID_4363_"><path id="XMLID_4364_" d="m412.136 242.369c-3.422 0-6.196-2.774-6.196-6.196v-73.111h-20.074c-3.423 0-6.196-2.774-6.196-6.196 0-3.421 2.773-6.196 6.196-6.196h26.271c3.422 0 6.195 2.774 6.195 6.196v79.307c-.001 3.422-2.774 6.196-6.196 6.196z"/></g><g id="XMLID_4361_"><path id="XMLID_4362_" d="m225.132 163.062c-3.422 0-6.251-2.774-6.251-6.196 0-3.421 2.718-6.196 6.14-6.196h.111c3.423 0 6.196 2.774 6.196 6.196s-2.773 6.196-6.196 6.196z"/></g><g id="XMLID_4359_"><path id="XMLID_4360_" d="m412.136 446.832h-375.469c-3.422 0-6.195-2.773-6.195-6.195v-283.771c0-3.421 2.773-6.196 6.195-6.196h.546c3.422 0 6.196 2.774 6.196 6.196 0 .908-.195 1.77-.546 2.546v275.028h363.076v-42.132c0-3.422 2.774-6.195 6.196-6.195s6.195 2.773 6.195 6.195v48.328c.001 3.423-2.772 6.196-6.194 6.196z"/></g><g id="XMLID_4355_"><path id="XMLID_4356_" d="m71.364 163.062h-34.151c-3.422 0-6.196-2.774-6.196-6.196 0-31.04 21.927-59.123 52.135-66.775 2.528-.638 5.184.371 6.647 2.526 1.464 2.156 1.422 4.998-.104 7.109-8.896 12.307-13.597 26.928-13.597 42.282 0 .3-.021.595-.063.883.051.3.079.606.086.919.011.558.032 1.117.054 1.665.164 3.303.58 6.634 1.272 10.214.351 1.816-.127 3.693-1.305 5.12-1.177 1.427-2.929 2.253-4.778 2.253zm-27.599-12.392h20.395c-.166-1.531-.286-3.043-.36-4.549-.002-.022-.005-.139-.007-.16-.025-.63-.05-1.272-.062-1.913-.006-.34.015-.675.062-1.002-.058-.337-.087-.684-.087-1.038 0-11.562 2.28-22.772 6.683-33.142-14.546 9.095-24.644 24.596-26.624 41.804z"/></g><g id="XMLID_4353_"><path id="XMLID_4354_" d="m229.259 163.062h-4.039c-1.849 0-3.642-.824-4.819-2.248s-1.701-3.299-1.354-5.113c.822-4.295 1.231-7.928 1.329-11.779.085-3.368 2.842-6.04 6.191-6.04.052 0 .105.001.158.002 3.422.086 6.125 2.93 6.038 6.35-.028 1.106-.079 2.205-.153 3.307l75.691-46.438h-88.235c-.33 1.494-1.21 2.869-2.577 3.794-2.834 1.917-6.687 1.174-8.604-1.66-1.049-1.552-2.15-3.036-3.273-4.411-1.514-1.853-1.823-4.413-.798-6.575s3.205-3.54 5.598-3.54h116.47c.153 0 .552-.053.871-.096.524-.07 1.166-.156 1.885-.19.604-.042 1.103-.018 1.417-.002 2.711.14 5.015 2.027 5.685 4.658.67 2.63-.451 5.391-2.765 6.81l-101.476 62.256c-.975.599-2.097.915-3.24.915z"/></g><g id="XMLID_4351_"><path id="XMLID_4352_" d="m226.594 148.366c-3.422 0-6.195-2.774-6.195-6.196 0-.594-.011-1.176-.023-1.77l12.39-.268-6.194.116 6.195-.081c.013.671.024 1.331.024 2.002-.001 3.423-2.774 6.197-6.197 6.197z"/></g><g id="XMLID_4349_"><path id="XMLID_4350_" d="m226.34 142.207c-3.205 0-5.92-2.471-6.17-5.72-.924-12.008-4.73-23.359-11.007-32.827-1.891-2.853-1.111-6.697 1.74-8.588 2.853-1.893 6.697-1.111 8.587 1.741 7.441 11.225 11.949 24.615 13.034 38.723.263 3.412-2.29 6.391-5.701 6.653-.162.012-.323.018-.483.018z"/></g><g id="XMLID_4347_"><path id="XMLID_4348_" d="m148.192 120.931c-3.422 0-6.196-2.774-6.196-6.196v-13.631c0-3.421 2.774-6.196 6.196-6.196s6.196 2.774 6.196 6.196v13.631c.001 3.421-2.774 6.196-6.196 6.196z"/></g><g id="XMLID_4345_"><path id="XMLID_4346_" d="m148.192 190.324c-3.422 0-6.196-2.774-6.196-6.196v-14.87c0-3.422 2.774-6.196 6.196-6.196s6.196 2.774 6.196 6.196v14.87c.001 3.422-2.774 6.196-6.196 6.196z"/></g><g id="XMLID_4343_"><path id="XMLID_4344_" d="m145.861 175.421c-5.693 0-11.64-1.407-17.189-4.237-3.047-1.555-4.259-5.287-2.703-8.335 1.555-3.049 5.283-4.259 8.335-2.704 9.246 4.718 17.325 2.979 21.432.053 2.122-1.511 3.258-3.356 3.037-4.935-.29-2.082-3.101-5.196-10.115-7.689-17.672-6.264-22.728-16.614-21.565-24.21 1.286-8.401 9.483-14.102 20.884-14.523 5.098-.196 10.7.641 16.627 2.496 3.267 1.022 5.085 4.498 4.063 7.764-1.021 3.266-4.501 5.081-7.763 4.063-4.572-1.432-8.768-2.083-12.457-1.94-5.55.205-8.83 2.222-9.104 4.015-.331 2.159 3.031 6.961 13.461 10.658 14.445 5.135 17.629 13.265 18.243 17.654.87 6.241-2.165 12.499-8.121 16.742-4.792 3.411-10.774 5.128-17.065 5.128z"/></g><g id="XMLID_4151_"><path id="XMLID_4340_" d="m148.242 226.793c-40.568 0-75.498-28.923-83.053-68.773-.752-3.915-1.221-7.934-1.392-11.942-.036-.604-.063-1.307-.067-2.015-.023-.601-.024-1.191-.024-1.793v-.261c.146-46.492 38.069-84.3 84.536-84.3 26.584 0 51.108 12.191 67.285 33.447 1.25 1.637 2.476 3.377 3.641 5.164.153.225.292.438.433.666 7.348 11.503 11.835 24.856 12.923 38.535.119 1.495.2 3.031.24 4.566.015.753.026 1.413.026 2.084 0 .735-.012 1.359-.024 1.996-.106 4.686-.598 9.331-1.459 13.859-7.555 39.844-42.49 68.767-83.065 68.767zm0-156.693c-39.656 0-72.02 32.267-72.145 71.928v.241c0 .467-.002.924.019 1.392.004.09.006.179.006.269 0 .51.021 1.021.051 1.521.151 3.506.55 6.921 1.188 10.246.001.005.002.011.002.016 6.448 34.006 36.257 58.689 70.879 58.689 34.629 0 64.442-24.683 70.891-58.689.735-3.864 1.153-7.825 1.242-11.775.013-.572.023-1.115.023-1.668 0-.693-.011-1.275-.023-1.869-.033-1.305-.103-2.621-.204-3.898-.927-11.662-4.754-23.05-11.065-32.931-.095-.151-.137-.214-.185-.281-.033-.05-.067-.1-.1-.15-1.006-1.549-2.066-3.054-3.147-4.472-13.82-18.159-34.752-28.569-57.432-28.569z"/></g><g id="XMLID_4149_"><path id="XMLID_4150_" d="m412.136 293.175c-3.422 0-6.196-2.773-6.196-6.195v-13.631c0-3.423 2.774-6.196 6.196-6.196s6.195 2.773 6.195 6.196v13.631c0 3.421-2.773 6.195-6.195 6.195z"/></g><g id="XMLID_4147_"><path id="XMLID_4148_" d="m412.136 362.568c-3.422 0-6.196-2.773-6.196-6.195v-14.87c0-3.423 2.774-6.196 6.196-6.196s6.195 2.773 6.195 6.196v14.87c0 3.422-2.773 6.195-6.195 6.195z"/></g><g id="XMLID_4145_"><path id="XMLID_4146_" d="m409.429 347.698c-5.688 0-11.628-1.404-17.172-4.232-3.048-1.556-4.259-5.287-2.703-8.336 1.555-3.047 5.288-4.258 8.335-2.703 9.242 4.716 17.314 2.971 21.418.044 2.119-1.511 3.253-3.352 3.031-4.925-.291-2.076-3.102-5.18-10.114-7.663-17.688-6.297-22.739-16.651-21.572-24.244 1.29-8.39 9.482-14.082 20.872-14.504 5.09-.19 10.696.643 16.651 2.494 3.269 1.015 5.094 4.486 4.078 7.754-1.016 3.27-4.488 5.1-7.755 4.078-4.609-1.432-8.825-2.079-12.508-1.943-5.54.206-8.816 2.216-9.092 4.004-.331 2.159 3.033 6.969 13.472 10.684 14.435 5.111 17.624 13.232 18.24 17.618.875 6.237-2.156 12.493-8.11 16.737-4.794 3.417-10.778 5.136-17.071 5.137z"/></g><g id="XMLID_4141_"><path id="XMLID_4142_" d="m411.826 399.1c-46.634 0-84.573-37.939-84.573-84.573 0-46.606 37.939-84.524 84.573-84.524h.31.025c46.428.188 84.2 38.105 84.2 84.524 0 46.446-37.772 84.386-84.2 84.573zm0-156.706c-39.802 0-72.182 32.358-72.182 72.133 0 39.802 32.38 72.182 72.182 72.182h.31c39.598-.161 71.834-32.541 71.834-72.182 0-39.609-32.227-71.965-71.843-72.133z"/></g><g id="XMLID_4137_"><path id="XMLID_4138_" d="m385.865 163.062h-156.606c-2.77 0-5.203-1.838-5.96-4.503-.758-2.664.348-5.507 2.703-6.963l136.06-84.064c1.688-1.042 3.772-1.213 5.606-.463 1.835.751 3.2 2.336 3.671 4.263l20.545 84.065c.452 1.848.029 3.8-1.146 5.297-1.174 1.494-2.97 2.368-4.873 2.368zm-134.789-12.392h126.896l-16.647-68.117z"/></g><g id="XMLID_4133_"><path id="XMLID_4134_" d="m194.042 425.767h-135.07c-3.422 0-6.195-2.773-6.195-6.196v-45.85c0-3.422 2.773-6.195 6.195-6.195h135.07c3.422 0 6.195 2.773 6.195 6.195v45.85c0 3.422-2.773 6.196-6.195 6.196zm-128.874-12.392h122.678v-33.458h-122.678z"/></g><g id="XMLID_4131_"><path id="XMLID_4132_" d="m72.058 54.003c-1.586 0-3.17-.604-4.379-1.812l-22.109-22.097c-2.421-2.42-2.421-6.343 0-8.763 2.417-2.419 6.343-2.419 8.761 0l22.104 22.092c2.421 2.418 2.424 6.341.005 8.762-1.209 1.212-2.796 1.818-4.382 1.818z"/></g><g id="XMLID_4129_"><path id="XMLID_4130_" d="m49.95 54.003c-1.586 0-3.173-.605-4.383-1.817-2.419-2.421-2.416-6.344.005-8.762l22.104-22.092c2.418-2.419 6.344-2.419 8.761 0 2.421 2.419 2.421 6.343 0 8.763l-22.108 22.096c-1.209 1.208-2.795 1.812-4.379 1.812z"/></g><g id="XMLID_4127_"><path id="XMLID_4128_" d="m444.354 109.778h-30.979c-3.423 0-6.196-2.774-6.196-6.196 0-3.421 2.773-6.196 6.196-6.196h30.979c3.422 0 6.195 2.774 6.195 6.196.001 3.422-2.773 6.196-6.195 6.196z"/></g><g id="XMLID_4125_"><path id="XMLID_4126_" d="m429.484 125.887c-3.423 0-6.196-2.774-6.196-6.196v-32.218c0-3.421 2.773-6.196 6.196-6.196 3.422 0 6.195 2.774 6.195 6.196v32.219c.001 3.421-2.773 6.195-6.195 6.195z"/></g><g id="XMLID_4121_"><path id="XMLID_4122_" d="m313.175 60.236c-16.61 0-30.123-13.508-30.123-30.111 0-16.611 13.512-30.125 30.123-30.125 16.604 0 30.113 13.514 30.113 30.125 0 16.603-13.509 30.111-30.113 30.111zm0-47.844c-9.777 0-17.731 7.955-17.731 17.733 0 9.771 7.954 17.72 17.731 17.72 9.772 0 17.722-7.949 17.722-17.72-.001-9.778-7.95-17.733-17.722-17.733z"/></g><g id="XMLID_4068_"><path id="XMLID_4118_" d="m39.084 512c-12.928 0-23.445-10.518-23.445-23.445 0-12.934 10.518-23.457 23.445-23.457s23.444 10.523 23.444 23.457c0 12.927-10.516 23.445-23.444 23.445zm0-34.511c-6.096 0-11.054 4.964-11.054 11.065 0 6.096 4.958 11.054 11.054 11.054 6.095 0 11.053-4.958 11.053-11.054 0-6.101-4.958-11.065-11.053-11.065z"/></g><g id="XMLID_4065_"><path id="XMLID_4066_" d="m484.008 423.288h-30.979c-3.422 0-6.196-2.773-6.196-6.196 0-3.422 2.774-6.195 6.196-6.195h30.979c3.422 0 6.195 2.773 6.195 6.195 0 3.423-2.773 6.196-6.195 6.196z"/></g><g id="XMLID_4063_"><path id="XMLID_4064_" d="m469.138 439.397c-3.423 0-6.196-2.773-6.196-6.196v-30.979c0-3.422 2.773-6.195 6.196-6.195 3.422 0 6.195 2.773 6.195 6.195v30.979c0 3.423-2.773 6.196-6.195 6.196z"/></g></g></g></g></g></svg>